<?xml version="1.0" encoding="UTF-8" standalone="no"?>
<!-- Created with Inkscape (http://www.inkscape.org/) -->

<svg
   width="210mm"
   height="297mm"
   viewBox="0 0 210 297"
   version="1.1"
   id="svg5"
   inkscape:version="1.1.1 (3bf5ae0d25, 2021-09-20)"
   sodipodi:docname="UdlaMinds.svg"
   xmlns:inkscape="http://www.inkscape.org/namespaces/inkscape"
   xmlns:sodipodi="http://sodipodi.sourceforge.net/DTD/sodipodi-0.dtd"
   xmlns="http://www.w3.org/2000/svg"
   xmlns:svg="http://www.w3.org/2000/svg">
  <sodipodi:namedview
     id="namedview7"
     pagecolor="#505050"
     bordercolor="#eeeeee"
     borderopacity="1"
     inkscape:pageshadow="0"
     inkscape:pageopacity="0"
     inkscape:pagecheckerboard="0"
     inkscape:document-units="mm"
     showgrid="false"
     inkscape:zoom="0.45611672"
     inkscape:cx="50.425689"
     inkscape:cy="518.50763"
     inkscape:window-width="1366"
     inkscape:window-height="697"
     inkscape:window-x="-8"
     inkscape:window-y="-8"
     inkscape:window-maximized="1"
     inkscape:current-layer="layer1" />
  <defs
     id="defs2" />
  <g
     inkscape:groupmode="layer"
     id="layer2"
     inkscape:label="Capa 2"
     style="display:inline">
    <g
       id="g9214"
       transform="matrix(0.26458333,0,0,0.26458333,26.396929,43.588886)"
       style="fill:#000000;fill-opacity:1" />
  </g>
  <g
     inkscape:groupmode="layer"
     id="layer3"
     inkscape:label="Capa 3" />
  <g
     inkscape:label="Capa 1"
     inkscape:groupmode="layer"
     id="layer1"
     style="display:inline">
    <g
       id="g15128"
       transform="translate(9.8613281,15.082031)"
       inkscape:export-filename="C:\Users\josue\g15128.png"
       inkscape:export-xdpi="96"
       inkscape:export-ydpi="96">
      <g
         id="g12853"
         style="display:inline">
        <path
           d="M 99.620783,85.348814 V 72.151389 c 0.002,-1.941398 1.574907,-3.514849 3.516307,-3.516309 h 6.01134 c 0.89981,3.885116 4.57141,6.476954 8.53257,6.023994 3.96107,-0.452937 6.9503,-3.806356 6.9503,-7.794055 0,-3.987706 -2.98923,-7.341118 -6.9503,-7.794065 -3.96116,-0.452947 -7.63276,2.138888 -8.53257,6.024004 h -6.01134 c -3.894314,0.006 -7.049413,3.162122 -7.053784,7.056431 V 85.340874 H 92.167472 V 72.151389 c -0.0044,-3.895349 -3.161088,-7.052061 -7.056437,-7.056431 h -6.008688 c -0.899811,-3.885116 -4.571412,-6.476951 -8.532577,-6.024004 -3.961066,0.452947 -6.950297,3.806359 -6.950297,7.794065 0,3.987699 2.989231,7.341118 6.950297,7.794055 3.961165,0.45296 7.632766,-2.138878 8.532577,-6.023994 h 6.008688 c 1.941401,0.001 3.514854,1.574911 3.516312,3.516309 V 85.340874 M 116.77372,62.560243 c 3.83904,-0.002 5.76257,4.638783 3.04829,7.353068 -2.71428,2.714285 -7.35542,0.790747 -7.35306,-3.048292 0.003,-2.376255 1.92852,-4.301856 4.30477,-4.304776 z m -45.296664,8.612192 c -3.838403,0.002 -5.762228,-4.637463 -3.04923,-7.352128 2.712997,-2.714665 7.354,-0.793697 7.354,3.044712 -0.0029,2.376678 -1.928092,4.303046 -4.30477,4.307416 z"
           style="display:inline;fill:#f25325;fill-opacity:1;stroke:none;stroke-width:0.264583"
           id="path13329" />
        <path
           d="M 68.153453,105.805 H 54.953398 c -1.940981,-0.002 -3.513672,-1.57534 -3.513672,-3.51633 v -6.006049 c 3.885119,-0.899811 6.476954,-4.571412 6.023997,-8.532577 -0.452937,-3.961067 -3.806359,-6.950297 -7.794055,-6.950297 -3.987709,0 -7.341123,2.98923 -7.794063,6.950297 -0.452951,3.961165 2.138886,7.632766 6.024002,8.532577 v 6.006049 c 0.004,3.89391 3.159902,7.04946 7.053791,7.05384 h 13.192125 v 3.92644 H 54.953398 c -3.894319,0.006 -7.049421,3.16213 -7.053791,7.05646 v 6.00604 c -3.885116,0.89981 -6.476953,4.57141 -6.024002,8.53258 0.45294,3.96107 3.806354,6.9503 7.794063,6.9503 3.987696,0 7.341118,-2.98923 7.794055,-6.9503 0.452957,-3.96117 -2.138878,-7.63277 -6.023997,-8.53258 v -6.00604 c 0,-1.94097 1.572691,-3.51486 3.513672,-3.51632 H 68.145523 M 45.364892,88.662621 c 0,-3.838403 4.641003,-5.759376 7.354008,-3.044711 2.712995,2.714664 0.789164,7.354485 -3.049232,7.352128 -2.377288,-0.0029 -4.303316,-1.930133 -4.304776,-4.307417 z m 8.612189,45.296769 c 0,3.83776 -4.639683,5.75903 -7.353068,3.04565 -2.713376,-2.71338 -0.792114,-7.35307 3.045655,-7.35307 2.377705,0.003 4.304503,1.92971 4.307413,4.30742 z"
           style="display:inline;fill:#05a6f0;fill-opacity:1;stroke-width:0.264583"
           id="path13651" />
        <path
           d="m 88.62999,137.3366 v 13.1975 c -0.002,1.94141 -1.574907,3.51487 -3.516307,3.51633 h -6.01134 c -0.89981,-3.88514 -4.57141,-6.47699 -8.53257,-6.02403 -3.96107,0.45294 -6.9503,3.80638 -6.9503,7.7941 0,3.98773 2.98923,7.34116 6.9503,7.79411 3.96116,0.45295 7.63276,-2.1389 8.53257,-6.02404 h 6.01134 c 3.894314,-0.006 7.049413,-3.16214 7.053784,-7.05647 v -13.18956 h 3.915834 v 13.18956 c 0.0044,3.89537 3.161088,7.0521 7.056439,7.05647 h 6.00869 c 0.89981,3.88514 4.57141,6.47699 8.53257,6.02404 3.96107,-0.45295 6.9503,-3.80638 6.9503,-7.79411 0,-3.98772 -2.98923,-7.34116 -6.9503,-7.7941 -3.96116,-0.45296 -7.63276,2.13889 -8.53257,6.02403 h -6.00869 c -1.9414,-0.001 -3.514856,-1.57492 -3.516314,-3.51633 V 137.34454 M 71.477053,160.1253 c -3.83904,0.002 -5.76257,-4.63881 -3.04829,-7.35311 2.71428,-2.7143 7.35542,-0.79075 7.35306,3.04831 -0.003,2.37627 -1.92852,4.30188 -4.30477,4.3048 z m 45.296667,-8.61224 c 3.8384,-0.002 5.76222,4.63749 3.04923,7.35217 -2.713,2.71468 -7.354,0.7937 -7.354,-3.04473 0.003,-2.37669 1.92809,-4.30307 4.30477,-4.30744 z"
           style="display:inline;fill:#80bc06;fill-opacity:1;stroke:none;stroke-width:0.264583"
           id="path14281" />
        <path
           d="m 120.14115,116.80908 h 13.20014 c 1.94098,0.002 3.51368,1.57534 3.51368,3.51633 v 6.00605 c -3.88514,0.89981 -6.47698,4.57141 -6.02403,8.53257 0.45294,3.96107 3.80638,6.9503 7.7941,6.9503 3.98774,0 7.34116,-2.98923 7.79411,-6.9503 0.45295,-3.96116 -2.13889,-7.63276 -6.02404,-8.53257 v -6.00605 c -0.004,-3.89391 -3.15991,-7.04946 -7.05382,-7.05384 h -13.19221 v -3.92644 h 13.19221 c 3.89434,-0.006 7.04945,-3.16213 7.05382,-7.05646 v -6.006044 c 3.88515,-0.89981 6.47699,-4.57141 6.02404,-8.53258 -0.45295,-3.96107 -3.80637,-6.9503 -7.79411,-6.9503 -3.98772,0 -7.34116,2.98923 -7.7941,6.9503 -0.45295,3.96117 2.13889,7.63277 6.02403,8.53258 v 6.006044 c 0,1.94097 -1.5727,3.51486 -3.51368,3.51632 h -13.19221 m 22.78076,28.14647 c 0,3.8384 -4.64103,5.75937 -7.35404,3.04471 -2.71302,-2.71467 -0.78918,-7.35449 3.04924,-7.35213 2.37731,0.003 4.30334,1.93013 4.3048,4.30742 z m -8.61223,-45.296774 c 0,-3.83776 4.63971,-5.75903 7.3531,-3.04565 2.7134,2.71338 0.79213,7.35307 -3.04567,7.35307 -2.37772,-0.003 -4.30452,-1.92971 -4.30743,-4.30742 z"
           style="display:inline;fill:#ffba08;fill-opacity:1;stroke-width:0.264583"
           id="path14492" />
      </g>
      <path
         d="m 355.37,180.66 c -0.033,-13.24115 -10.75885,-23.96702 -24,-24 -150.71,-0.03 -136.05622,-0.03 -150.71,-0.03 -13.24115,0.033 -23.96702,10.75885 -24,24 -0.03,150.71 -0.03,136.0669 -0.03,150.71 0.033,13.24115 10.75885,23.96702 24,24 150.71,0.03 136.07331,0.03 150.71,0.03 13.24115,-0.033 23.96702,-10.75885 24,-24 0.03,-150.71 0.03,-103.22386 0.03,-150.71 z m -13.38,150.68 c -0.005,5.88117 -4.76884,10.64898 -10.65,10.66 H 180.66 C 174.77493,341.994 170.00551,337.22507 170,331.34 V 180.66 c 0.006,-5.88507 4.77493,-10.65449 10.66,-10.66 h 150.68 c 5.88507,0.006 10.65449,4.77493 10.66,10.66 z"
         id="path9204"
         style="display:inline;fill:#8c002f;fill-opacity:1"
         sodipodi:nodetypes="cccccccccccccccccc"
         transform="matrix(0.26458333,0,0,0.26458333,26.396929,43.588887)" />
      <path
         d="m 87.655907,106.02011 c 1.16752,-1.23394 0.36168,-1.94813 -0.73708,-1.09122 -1.83875,1.43409 -4.05596,2.59157 -5.94939,2.94489 -0.42921,0.0801 -0.68475,-0.10837 -1.09358,-0.0869 -0.43759,0.023 -1.11022,0.20741 -1.49005,0.1434 -0.33338,-0.0561 -0.16166,-0.29572 -0.43702,-0.42489 -0.43087,-0.20227 -1.26322,-0.34986 -1.51249,-0.7471 5.88635,-5.39033 12.3185,-9.636386 19.78192,-12.695976 1.88436,-0.77248 5.747813,-0.94589 3.54304,3.39547 -3.56648,7.022756 -10.70893,14.032546 -15.94372,21.110686 -1.43994,1.94701 -0.96999,2.96055 1.18108,1.77154 8.59676,-4.75147 15.450473,-12.36133 23.767973,-17.42009 1.5598,-0.94866 7.93174,-3.158716 3.83836,3.69078 -2.08242,3.48453 -4.13366,6.98762 -6.20048,10.48142 -0.95383,2.39699 0.0187,3.40955 2.2144,3.54303 -1.32863,1.13184 -2.51415,2.61475 -3.98592,3.39548 -0.99206,0.52628 -2.98844,1.91659 -2.95243,-1.47622 0.0124,-1.17424 0.21132,-3.24733 0.44286,-4.87169 0.2921,-2.04883 -1.0908,-2.09402 -2.657273,-0.88577 -5.66875,4.37287 -11.28683,7.06742 -16.53431,9.59567 -2.92817,1.41078 -7.7007,1.31789 -5.90503,-3.69065 2.10545,-5.87251 5.59271,-11.35906 10.62914,-16.68187 z"
         style="fill:#ffffff;fill-opacity:1;fill-rule:evenodd;stroke:none;stroke-width:0.264583"
         id="path533"
         sodipodi:nodetypes="scsscccscscssccscccssss" />
    </g>
  </g>
</svg>
